<svg xmlns="http://www.w3.org/2000/svg" version="1.1" xmlns:xlink="http://www.w3.org/1999/xlink" xmlns:svgjs="http://svgjs.com/svgjs" width="512" height="512" x="0" y="0" viewBox="0 0 512.001 512.001" style="enable-background:new 0 0 512 512" xml:space="preserve" class=""><g>
<polygon xmlns="http://www.w3.org/2000/svg" style="--darkreader-inline-fill:#2b2e30;" points="256.003,163.008 255.997,163.008 64.001,256.006 255.997,349.004 256.003,349.004   447.998,256.006 447.998,256.006 " fill="#d8d8e4" data-original="#d8d8e4" data-darkreader-inline-fill=""></polygon>
<polyline xmlns="http://www.w3.org/2000/svg" style="--darkreader-inline-fill:#8b5500;" points="447.998,339.004 447.998,409.002 256.003,502 255.997,502 64.001,409.002 64.001,339.004   " fill="#ffc66c" data-original="#ffc66c" data-darkreader-inline-fill=""></polyline>
<polygon xmlns="http://www.w3.org/2000/svg" style="--darkreader-inline-fill:#9a5b00;" points="447.998,339.004 256.003,339.004 256.003,502 447.998,409.002 " fill="#ffb954" data-original="#ffb954" data-darkreader-inline-fill=""></polygon>
<polygon xmlns="http://www.w3.org/2000/svg" style="--darkreader-inline-fill:#b16201;" points="501.991,309.999 312.502,405.502 256.003,349.004 447.998,256.006 " fill="#fea02c" data-original="#fea02c" data-darkreader-inline-fill="" class=""></polygon>
<polygon xmlns="http://www.w3.org/2000/svg" style="--darkreader-inline-fill:#9a5b00;" points="10.009,309.999 199.498,405.502 255.997,349.004 64.001,256.006 " fill="#ffb954" data-original="#ffb954" data-darkreader-inline-fill=""></polygon>
<path xmlns="http://www.w3.org/2000/svg" style="--darkreader-inline-fill:#940000;" d="M300.213,125.359c-17.414,0-33.117,7.503-44.21,19.527c-11.093-12.024-26.796-19.527-44.21-19.527  c-33.611,0-60.858,27.947-60.858,62.422c0,48.29,105.068,114.801,105.068,114.801s105.068-66.51,105.068-114.801  C361.07,153.305,333.824,125.359,300.213,125.359z" fill="#ff5d5d" data-original="#ff5d5d" data-darkreader-inline-fill="" class=""></path>
<path xmlns="http://www.w3.org/2000/svg" d="M509.062,302.928l-53.993-53.993c-0.806-0.806-1.728-1.446-2.716-1.924c0.001-0.002,0.002-0.003,0.004-0.005l-84.795-41.072  c2.335-6.347,3.508-12.403,3.508-18.154c0-39.933-31.786-72.421-70.857-72.421c-16.086,0-31.732,5.681-44.21,15.838  c-12.478-10.157-28.124-15.838-44.21-15.838c-39.071,0-70.857,32.488-70.857,72.421c0,5.751,1.172,11.806,3.507,18.152l-84.8,41.075  c0.001,0.002,0.001,0.003,0.002,0.005c-0.987,0.478-1.908,1.118-2.714,1.924L2.938,302.928c-2.269,2.27-3.312,5.489-2.802,8.657  c0.509,3.168,2.507,5.899,5.372,7.344l48.494,24.441v65.632c0,3.833,2.191,7.329,5.641,9l61.384,29.732  c1.404,0.68,2.89,1.002,4.353,1.002c3.713,0,7.279-2.077,9.007-5.643c2.407-4.971,0.33-10.951-4.641-13.359l-55.743-27v-49.286  l120.996,60.983c1.43,0.721,2.97,1.07,4.498,1.07c2.594,0,5.153-1.009,7.074-2.929l39.434-39.434v112.91l-51.149-24.775  c-4.968-2.403-10.95-0.329-13.359,4.641c-2.407,4.971-0.33,10.951,4.641,13.359l65.502,31.728c1.359,0.658,2.855,1,4.365,1  c1.51,0,3-0.342,4.359-1l191.996-92.998c3.449-1.671,5.641-5.167,5.641-9v-65.632l48.494-24.441  c2.865-1.444,4.863-4.176,5.372-7.344C512.374,308.417,511.331,305.198,509.062,302.928z M211.793,135.359  c14.068,0,27.158,5.792,36.86,16.308c1.893,2.052,4.558,3.219,7.35,3.219c2.792,0,5.457-1.167,7.35-3.219  c9.702-10.517,22.792-16.308,36.86-16.308c28.043,0,50.858,23.516,50.858,52.422c0,16.478-17.365,40.553-48.897,67.791  c-18.514,15.993-37.258,29.062-46.172,35.043c-8.878-5.954-27.509-18.942-46.001-34.896c-31.641-27.301-49.066-51.429-49.066-67.938  C160.935,158.874,183.75,135.359,211.793,135.359z M197.541,393.319L26.857,307.293l39.187-39.187l172.941,83.769L197.541,393.319z   M437.999,402.736l-171.996,83.31V373.146l39.428,39.428c1.921,1.92,4.48,2.929,7.074,2.929c1.528,0,3.069-0.35,4.498-1.07  l120.996-60.983L437.999,402.736L437.999,402.736z M314.459,393.319l-41.443-41.443l52.247-25.307  c4.971-2.408,7.048-8.389,4.641-13.359s-8.39-7.044-13.359-4.641l-60.544,29.325L86.942,256.006l66.612-32.265  c9.333,14.492,23.814,30.234,43.384,47.119c26.52,22.884,52.62,39.475,53.718,40.17c1.633,1.034,3.491,1.551,5.349,1.551  c1.858,0,3.716-0.517,5.349-1.551c1.098-0.695,27.196-17.286,53.718-40.17c19.569-16.884,34.05-32.626,43.382-47.117l66.607,32.263  l-38.265,18.535c-4.971,2.408-7.048,8.389-4.641,13.359c2.409,4.972,8.392,7.047,13.359,4.641l50.444-24.434l39.187,39.187  L314.459,393.319z" fill="#000000" data-original="#000000" data-darkreader-inline-fill="" style="--darkreader-inline-fill:#000000;" class=""></path>
<path xmlns="http://www.w3.org/2000/svg" d="M355.491,290.815c-2.631,0-5.21,1.07-7.07,2.931c-1.86,1.859-2.93,4.439-2.93,7.069c0,2.63,1.069,5.21,2.93,7.07  c1.861,1.86,4.439,2.93,7.07,2.93c2.63,0,5.21-1.069,7.069-2.93c1.86-1.86,2.931-4.44,2.931-7.07c0-2.63-1.07-5.21-2.931-7.069  C360.7,291.885,358.121,290.815,355.491,290.815z" fill="#000000" data-original="#000000" data-darkreader-inline-fill="" style="--darkreader-inline-fill:#e8e6e3;" class=""></path>
<path xmlns="http://www.w3.org/2000/svg" d="M156.965,444.032c-2.63,0-5.21,1.069-7.07,2.93c-1.859,1.859-2.93,4.439-2.93,7.07c0,2.63,1.07,5.21,2.93,7.069  c1.86,1.86,4.44,2.931,7.07,2.931c2.64,0,5.21-1.07,7.07-2.931c1.869-1.859,2.93-4.439,2.93-7.069c0-2.631-1.061-5.211-2.93-7.07  C162.175,445.102,159.595,444.032,156.965,444.032z" fill="#000000" data-original="#000000" data-darkreader-inline-fill="" style="--darkreader-inline-fill:#e8e6e3;" class=""></path>
<path xmlns="http://www.w3.org/2000/svg" d="M256.003,65.314c5.522,0,10-4.477,10-10V10c0-5.523-4.478-10-10-10c-5.522,0-10,4.477-10,10v45.315  C246.003,60.838,250.481,65.314,256.003,65.314z" fill="#000000" data-original="#000000" data-darkreader-inline-fill="" style="--darkreader-inline-fill:#000000;" class=""></path>
<path xmlns="http://www.w3.org/2000/svg" d="M321.325,90.408c2.56,0,5.118-0.976,7.071-2.929l22.166-22.166c3.905-3.905,3.905-10.237,0-14.143  c-3.906-3.905-10.236-3.905-14.143,0l-22.166,22.166c-3.905,3.905-3.905,10.237,0,14.143  C316.207,89.432,318.766,90.408,321.325,90.408z" fill="#000000" data-original="#000000" data-darkreader-inline-fill="" style="--darkreader-inline-fill:#e8e6e3;" class=""></path>
<path xmlns="http://www.w3.org/2000/svg" d="M183.61,87.479c1.953,1.953,4.512,2.929,7.071,2.929s5.118-0.976,7.071-2.929c3.905-3.905,3.905-10.237,0-14.143  L175.585,51.17c-3.906-3.905-10.236-3.905-14.143,0c-3.905,3.905-3.905,10.237,0,14.143L183.61,87.479z" fill="#000000" data-original="#000000" data-darkreader-inline-fill="" style="--darkreader-inline-fill:#e8e6e3;" class=""></path>
<g xmlns="http://www.w3.org/2000/svg">
</g>
<g xmlns="http://www.w3.org/2000/svg">
</g>
<g xmlns="http://www.w3.org/2000/svg">
</g>
<g xmlns="http://www.w3.org/2000/svg">
</g>
<g xmlns="http://www.w3.org/2000/svg">
</g>
<g xmlns="http://www.w3.org/2000/svg">
</g>
<g xmlns="http://www.w3.org/2000/svg">
</g>
<g xmlns="http://www.w3.org/2000/svg">
</g>
<g xmlns="http://www.w3.org/2000/svg">
</g>
<g xmlns="http://www.w3.org/2000/svg">
</g>
<g xmlns="http://www.w3.org/2000/svg">
</g>
<g xmlns="http://www.w3.org/2000/svg">
</g>
<g xmlns="http://www.w3.org/2000/svg">
</g>
<g xmlns="http://www.w3.org/2000/svg">
</g>
<g xmlns="http://www.w3.org/2000/svg">
</g>
</g></svg>